<svg xmlns="http://www.w3.org/2000/svg" viewBox="0 0 64 64" fill="none">
  <defs>
    <linearGradient id="topFill" x1="18" x2="49" y1="11" y2="37" gradientUnits="userSpaceOnUse">
      <stop stop-color="#FFF8F0" />
      <stop offset="1" stop-color="#EAE2D7" />
    </linearGradient>
    <linearGradient id="bottomFill" x1="12" x2="50" y1="30" y2="56" gradientUnits="userSpaceOnUse">
      <stop stop-color="#E49A69" />
      <stop offset="1" stop-color="#7A83C1" />
    </linearGradient>
  </defs>
  <path fill="url(#bottomFill)" d="M17 27h30c6.627 0 12 5.373 12 12v4c0 6.627-5.373 12-12 12H17C10.373 55 5 49.627 5 43v-4c0-6.627 5.373-12 12-12Z" />
  <path fill="url(#topFill)" stroke="#F0E3D5" stroke-width="1.4" d="M21 8h22c7.18 0 13 5.82 13 13v2c0 7.18-5.82 13-13 13H21c-7.18 0-13-5.82-13-13v-2c0-7.18 5.82-13 13-13Z" />
  <path stroke="#FFF8F2" stroke-linecap="round" stroke-width="2" d="M21 22h22" />
  <path stroke="#FFDAB9" stroke-linecap="round" stroke-width="3" d="M13 39h38" />
</svg>
